<?xml version="1.0" standalone="no"?>
<!DOCTYPE svg PUBLIC "-//W3C//DTD SVG 20010904//EN"
 "http://www.w3.org/TR/2001/REC-SVG-20010904/DTD/svg10.dtd">
<svg version="1.0" xmlns="http://www.w3.org/2000/svg"
 width="300.000000pt" height="300.000000pt" viewBox="0 0 300.000000 300.000000"
 preserveAspectRatio="xMidYMid meet">
<metadata>
Created by potrace 1.11, written by Peter Selinger 2001-2013
</metadata>
<g transform="translate(0.000000,300.000000) scale(0.100000,-0.100000)"
fill="#000000" stroke="none">
<path d="M0 1500 l0 -1500 1500 0 1500 0 0 1500 0 1500 -1500 0 -1500 0 0
-1500z m1500 875 l0 -45 -40 0 -40 0 0 45 0 45 40 0 40 0 0 -45z m170 -105 l0
-70 -70 0 -70 0 0 70 0 70 70 0 70 0 0 -70z m240 -20 l0 -90 -90 0 -90 0 0 90
0 90 90 0 90 0 0 -90z m-970 -195 l0 -65 -47 0 c-27 0 -59 -6 -73 -13 l-25
-13 -5 -209 c-5 -190 -7 -214 -27 -253 l-21 -44 21 -36 c20 -34 22 -53 25
-247 4 -242 1 -235 94 -235 l58 0 0 -65 0 -65 -78 0 c-89 0 -151 24 -186 73
-19 26 -21 46 -26 259 -6 264 -4 258 -97 258 l-53 0 0 65 0 65 59 0 c42 0 62
5 72 17 11 12 15 71 19 239 5 205 7 225 26 250 44 59 98 80 217 83 l47 1 0
-65z m748 -22 l-3 -88 -87 -3 -88 -3 0 91 0 90 90 0 91 0 -3 -87z m521 55 c78
-40 85 -65 89 -318 2 -128 8 -220 14 -227 6 -8 34 -13 69 -13 l59 0 0 -65 0
-65 -48 0 c-90 0 -90 2 -94 -247 -4 -246 -11 -275 -76 -315 -29 -18 -55 -23
-130 -26 l-93 -4 3 63 3 64 62 3 c93 4 93 5 93 243 0 184 1 198 23 241 l23 45
-21 27 c-18 25 -21 47 -26 249 -3 122 -6 223 -7 224 -11 9 -74 23 -108 23
l-44 0 0 66 0 67 82 -6 c55 -5 97 -14 127 -29z m-299 -10 c0 -7 0 -234 0 -504
0 -542 -1 -549 -63 -640 -23 -36 -48 -57 -91 -79 l-60 -30 -230 0 -231 0 -63
29 c-158 73 -235 263 -203 500 15 117 49 192 113 252 91 85 106 89 401 92
l257 3 0 195 0 194 85 0 c61 0 85 -3 85 -12z"/>
<path d="M1255 1511 c-72 -33 -102 -87 -111 -203 -12 -142 22 -243 95 -286 45
-26 50 -27 211 -27 147 0 169 2 199 20 77 45 91 100 91 346 l0 169 -222 0
c-195 0 -228 -3 -263 -19z"/>
</g>
</svg>
